<svg width="2181" height="807" xmlns="http://www.w3.org/2000/svg" xmlns:xlink="http://www.w3.org/1999/xlink" xml:space="preserve" overflow="hidden"><defs><clipPath id="clip0"><rect x="1210" y="893" width="2181" height="807"/></clipPath></defs><g clip-path="url(#clip0)" transform="translate(-1210 -893)"><path d="M1935.29 1514.73C1812.83 1694.94 1567.47 1741.75 1387.27 1619.29 1207.06 1496.83 1160.25 1251.47 1282.71 1071.27 1405.17 891.062 1650.53 844.251 1830.73 966.711 1876.11 997.55 1914.56 1037.52 1943.62 1084.06" stroke="#FFFFFF" stroke-width="6.875" stroke-linecap="butt" stroke-linejoin="miter" stroke-miterlimit="8" stroke-opacity="1" fill="none" fill-rule="evenodd"/><path d="M1788.93 1510.17C1668.78 1609.09 1491.04 1592.05 1391.95 1472.11 1292.85 1352.17 1309.92 1174.76 1430.07 1075.83 1538.6 986.479 1696.51 990.642 1800.16 1085.59" stroke="#FFFFFF" stroke-width="6.875" stroke-linecap="butt" stroke-linejoin="miter" stroke-miterlimit="8" stroke-opacity="1" fill="none" fill-rule="evenodd"/><path d="M1435 1050.5C1435 1028.68 1452.68 1011 1474.5 1011 1496.32 1011 1514 1028.68 1514 1050.5 1514 1072.32 1496.32 1090 1474.5 1090 1452.68 1090 1435 1072.32 1435 1050.5Z" fill="#FFFFFF" fill-rule="evenodd" fill-opacity="1"/><path d="M1243 1497.5C1243 1481.76 1255.54 1469 1271 1469 1286.46 1469 1299 1481.76 1299 1497.5 1299 1513.24 1286.46 1526 1271 1526 1255.54 1526 1243 1513.24 1243 1497.5Z" fill="#FFFFFF" fill-rule="evenodd" fill-opacity="1"/><path d="M1558 1573.5C1558 1545.61 1580.83 1523 1609 1523 1637.17 1523 1660 1545.61 1660 1573.5 1660 1601.39 1637.17 1624 1609 1624 1580.83 1624 1558 1601.39 1558 1573.5Z" fill="#FFFFFF" fill-rule="evenodd" fill-opacity="1"/><text fill="#FFFFFF" fill-opacity="1" font-family="Arial,Arial_MSFontService,sans-serif" font-style="normal" font-variant="normal" font-weight="700" font-stretch="normal" font-size="183" text-anchor="start" direction="ltr" writing-mode="lr-tb" unicode-bidi="normal" text-decoration="none" transform="matrix(1 0 0 1 1537.95 1359)">BusinessVerse</text></g></svg>